# xmcd
#
# Track frame offsets:
#	150
#	20254
#	34370
#	47476
#	62875
#	82864
#
# Disc length: 1368 seconds
# Revision: 0
# Processed by: cddbd v1.5.2PL0 Copyright (c) Steve Scherf et al.
# Submitted via: dBpowerAMP V12.0
#
DISCID=41055606
DTITLE=Silver Creek - Follow The Sun
DYEAR=2009
DGENRE=Country
TTITLE0=Bolingbroke Road
TTITLE1=Hammer Down
TTITLE2=China Dolls
TTITLE3=Tinted Windows
TTITLE4=Heartbroken Girl
TTITLE5=Take Your Time
EXTD=
EXTT0=
EXTT1=
EXTT2=
EXTT3=
EXTT4=
EXTT5=
PLAYORDER=
